<?xml version="1.0" encoding="UTF-8" standalone="no"?>
<svg width="110px" height="110px" viewBox="0 0 110 110" version="1.1" xmlns="http://www.w3.org/2000/svg" xmlns:xlink="http://www.w3.org/1999/xlink" xmlns:sketch="http://www.bohemiancoding.com/sketch/ns">
    <!-- Generator: Sketch 3.4 (15588) - http://www.bohemiancoding.com/sketch -->
    <title>Group Copy 4</title>
    <desc>Created with Sketch.</desc>
    <defs></defs>
    <g id="ola-search-icon" stroke="none" stroke-width="1" fill="none" fill-rule="evenodd" sketch:type="MSPage">
        <g id="Group-Copy-4" sketch:type="MSLayerGroup">
            <path d="M110,55 C110,85.376 85.375,110 55,110 C24.625,110 0,85.376 0,55 C0,24.625 24.625,0 55,0 C85.375,0 110,24.625 110,55" id="Fill-605" fill="#567AF5" sketch:type="MSShapeGroup"></path>
            <g id="Group" transform="translate(24.000000, 25.000000)" sketch:type="MSShapeGroup">
                <path d="M31.5,49.21875 C21.7389375,49.21875 13.78125,41.2659844 13.78125,31.5 C13.78125,21.8157187 21.6473906,13.78125 31.5,13.78125 C41.1990469,13.78125 49.21875,21.6749531 49.21875,31.5 C49.21875,41.1842813 41.3526094,49.21875 31.5,49.21875 M61.03125,27.5625 L54.7903125,27.5625 C54.1898437,23.9695312 52.7821875,20.6620312 50.754375,17.8171875 L55.164375,13.4071875 C55.9321875,12.6295312 55.9321875,11.3892188 55.164375,10.6214062 L52.3785938,7.835625 C51.6107812,7.0678125 50.3704687,7.0678125 49.5928125,7.835625 L45.1828125,12.245625 C42.3379687,10.2178125 39.0304687,8.81015625 35.4375,8.2096875 L35.4375,1.96875 C35.4375,0.8859375 34.5515625,0 33.46875,0 L29.53125,0 C28.4484375,0 27.5625,0.8859375 27.5625,1.96875 L27.5625,8.2096875 C23.9695313,8.81015625 20.6620313,10.2178125 17.8171875,12.245625 L13.4071875,7.835625 C12.6295313,7.0678125 11.3892188,7.0678125 10.6214062,7.835625 L7.835625,10.6214062 C7.0678125,11.3892188 7.0678125,12.6295312 7.835625,13.4071875 L12.245625,17.8171875 C10.2178125,20.6620312 8.81015625,23.9695312 8.2096875,27.5625 L1.96875,27.5625 C0.8859375,27.5625 0,28.4484375 0,29.53125 L0,33.46875 C0,34.5515625 0.8859375,35.4375 1.96875,35.4375 L8.2096875,35.4375 C8.81015625,39.0304688 10.2178125,42.3379688 12.245625,45.1828125 L7.835625,49.5928125 C7.0678125,50.3704688 7.0678125,51.6107812 7.835625,52.3785938 L10.6214062,55.164375 C11.3892188,55.9321875 12.6295313,55.9321875 13.4071875,55.164375 L17.8171875,50.754375 C20.6620313,52.7821875 23.9695313,54.1898438 27.5625,54.7903125 L27.5625,61.03125 C27.5625,62.1140625 28.4484375,63 29.53125,63 L33.46875,63 C34.5515625,63 35.4375,62.1140625 35.4375,61.03125 L35.4375,54.7903125 C39.0304687,54.1898438 42.3379687,52.7821875 45.1828125,50.754375 L49.5928125,55.164375 C50.3704687,55.9321875 51.6107812,55.9321875 52.3785938,55.164375 L55.164375,52.3785938 C55.9321875,51.6107812 55.9321875,50.3704688 55.164375,49.5928125 L50.754375,45.1828125 C52.7821875,42.3379688 54.1898437,39.0304688 54.7903125,35.4375 L61.03125,35.4375 C62.1140625,35.4375 63,34.5515625 63,33.46875 L63,29.53125 C63,28.4484375 62.1140625,27.5625 61.03125,27.5625" id="Fill-7757" fill="#D8DEFF"></path>
                <path d="M49.8300242,7.87310426 L45.3989303,12.3041981 C42.5404792,10.2666862 39.2171588,8.85229687 35.6070042,8.24895597 L35.6070042,1.9781669 C35.6070042,0.890175104 34.7168291,0 33.6288373,0 L29.6725035,0 C28.5845117,0 27.6943366,0.890175104 27.6943366,1.9781669 L27.6943366,8.24895597 C24.084182,8.85229687 20.7608616,10.2666862 17.9024104,12.3041981 L13.4713166,7.87310426 C12.6899407,7.10161917 11.4436955,7.10161917 10.6722104,7.87310426 L7.87310426,10.6722104 C7.10161917,11.4436955 7.10161917,12.6899407 7.87310426,13.4713166 L12.3041981,17.9024104 C10.2666862,20.7608616 8.85229687,24.084182 8.24895597,27.6943366 L1.9781669,27.6943366 C0.890175104,27.6943366 0,28.5845117 0,29.6725035 L0,33.6288373 C0,34.7168291 0.890175104,35.6070042 1.9781669,35.6070042 L8.24895597,35.6070042 C8.85229687,39.2171588 10.2666862,42.5404792 12.3041981,45.3989303 L7.87310426,49.8300242 C7.10161917,50.6114001 7.10161917,51.8576452 7.87310426,52.6291303 L9.24397392,54 L19.0418346,44.2011503 C15.835226,40.9787164 13.8471683,36.541688 13.8471683,31.6506704 C13.8471683,21.9200674 21.7509341,13.8471683 31.6506704,13.8471683 C36.5209173,13.8471683 40.9698146,15.8283024 44.2021394,19.0418346 L54,9.24397392 L52.6291303,7.87310426 C51.8576452,7.10161917 50.6114001,7.10161917 49.8300242,7.87310426" id="Fill-7758" fill="#FFFFFF"></path>
                <path d="M31.5,43.1666667 C25.0570833,43.1666667 19.8333333,37.9429167 19.8333333,31.5 C19.8333333,25.0570833 25.0570833,19.8333333 31.5,19.8333333 C37.9429167,19.8333333 43.1666667,25.0570833 43.1666667,31.5 C43.1666667,37.9429167 37.9429167,43.1666667 31.5,43.1666667 M31.5,14 C21.8351389,14 14,21.8351389 14,31.5 C14,41.1648611 21.8351389,49 31.5,49 C41.1648611,49 49,41.1648611 49,31.5 C49,21.8351389 41.1648611,14 31.5,14" id="Fill-7759" fill="#3357CC"></path>
                <path d="M31.5912956,14 C21.8760139,14 14,21.8760139 14,31.5912956 C14,36.4347656 15.9584976,40.8189074 19.1249308,44 L23.2715901,39.854318 C21.1664984,37.7335896 19.8637652,34.8153891 19.8637652,31.5912956 C19.8637652,25.1147669 25.1147669,19.8637652 31.5912956,19.8637652 C34.8153891,19.8637652 37.7335896,21.1664984 39.854318,23.2715901 L44,19.1249308 C40.8189074,15.9584976 36.4347656,14 31.5912956,14" id="Fill-7760" fill="#567AF5"></path>
                <path d="M31.5,39.1666667 C27.265125,39.1666667 23.8333333,35.7339167 23.8333333,31.5 C23.8333333,27.2660833 27.265125,23.8333333 31.5,23.8333333 C35.734875,23.8333333 39.1666667,27.2660833 39.1666667,31.5 C39.1666667,35.7339167 35.734875,39.1666667 31.5,39.1666667 M31.5,20 C25.149125,20 20,25.149125 20,31.5 C20,37.850875 25.149125,43 31.5,43 C37.850875,43 43,37.850875 43,31.5 C43,25.149125 37.850875,20 31.5,20" id="Fill-7761" fill="#EDF0FF"></path>
                <path d="M31.7330726,20 C25.2534833,20 20,25.2534833 20,31.7330726 C20,34.9586898 21.3033488,37.8782694 23.4094353,40 L26.1745295,37.2339281 C24.7763383,35.8210706 23.9110242,33.8782694 23.9110242,31.7330726 C23.9110242,27.4133464 27.4123686,23.9110242 31.7330726,23.9110242 C33.8782694,23.9110242 35.8210706,24.7763383 37.2329504,26.1745295 L40,23.4094353 C37.8782694,21.3033488 34.9586898,20 31.7330726,20" id="Fill-7762" fill="#FFFFFF"></path>
            </g>
            <path d="M57.5,8.81135284 C55.6243748,5.5127533 50,6.69064593 50,12.5809427 C50.1167056,17.94273 57.5,22.0049174 57.5,22.0049174 C57.5,22.0049174 64.8832944,17.94273 65,12.5809427 C65,6.69064593 59.3747916,5.5127533 57.5,8.81135284" id="Fill-6903" fill="#FF4081" sketch:type="MSShapeGroup"></path>
            <path d="M43,21.9660548 C41.9996666,20.2068018 39,20.8350112 39,23.9765028 C39.062243,26.8361226 43,29.0026226 43,29.0026226 C43,29.0026226 46.937757,26.8361226 47,23.9765028 C47,20.8350112 43.9998889,20.2068018 43,21.9660548" id="Fill-6903" fill="#FF4081" sketch:type="MSShapeGroup"></path>
        </g>
    </g>
</svg>