<?xml version="1.0" encoding="UTF-8" standalone="no"?>
<svg width="110px" height="110px" viewBox="0 0 110 110" version="1.1" xmlns="http://www.w3.org/2000/svg" xmlns:xlink="http://www.w3.org/1999/xlink" xmlns:sketch="http://www.bohemiancoding.com/sketch/ns">
    <!-- Generator: Sketch 3.4 (15588) - http://www.bohemiancoding.com/sketch -->
    <title>Group Copy 5</title>
    <desc>Created with Sketch.</desc>
    <defs></defs>
    <g id="ola-search-icon" stroke="none" stroke-width="1" fill="none" fill-rule="evenodd" sketch:type="MSPage">
        <g id="Group-Copy-5" sketch:type="MSLayerGroup">
            <path d="M110,55 C110,85.376 85.375,110 55,110 C24.625,110 0,85.376 0,55 C0,24.625 24.625,0 55,0 C85.375,0 110,24.625 110,55" id="Fill-3" fill="#1EBEA5" sketch:type="MSShapeGroup"></path>
            <g id="Group" transform="translate(27.000000, 27.000000)" sketch:type="MSShapeGroup">
                <path d="M24,39.0301485 L8.45680927,54.5506877 C6.52157256,56.4831041 3.38666423,56.4831041 1.45142753,54.5506877 C-0.483809176,52.6182712 -0.483809176,49.4879315 1.45142753,47.5555151 L17.0296452,32 C18.7547204,34.8680208 21.1453069,37.2813553 24,39.0301485" id="Fill-8000" fill="#044C40"></path>
                <path d="M20,35.9689079 L1.39706072,55 C-0.481582747,53.024485 -0.464106994,49.8690245 1.4407501,47.9113875 L16.9941705,32 C17.8417445,33.4391761 18.8553382,34.7710843 20,35.9689079" id="Fill-8001" fill="#0A685C"></path>
                <path d="M57,21.5 C57,33.3697917 47.3697917,43 35.5,43 C23.5872083,43 14,33.2793125 14,21.5 C14,9.63020833 23.6302083,0 35.5,0 C47.3697917,0 57,9.63020833 57,21.5" id="Fill-8002" fill="#0A685C"></path>
                <path d="M35.5,38 C44.6123421,38 52,30.6132105 52,21.5 C52,12.3876579 44.6123421,5 35.5,5 C26.3876579,5 19,12.3876579 19,21.5 C19,30.6132105 26.3876579,38 35.5,38" id="Fill-8003" fill="#B8FFF3"></path>
                <path d="M19,21.5032882 C19,12.3882616 26.3884908,5 35.5038002,5 C39.9771987,5 44.0275787,6.7866981 47,9.67651073 L23.6766558,33 C20.7867535,30.0276709 19,25.976548 19,21.5032882" id="Fill-8004" fill="#FFFFFF"></path>
            </g>
            <path d="M71,25.01 C71,24.95 70.971,24.917 70.932,24.911 C68.704,24.576 67.423,23.296 67.089,21.068 C67.083,21.028 67.05,21 67.01,21 C66.95,21 66.916,21.029 66.911,21.068 C66.577,23.296 65.296,24.576 63.068,24.911 C63.029,24.917 63,24.95 63,24.99 C63,25.049 63.029,25.083 63.068,25.089 C65.296,25.423 66.577,26.704 66.911,28.931 C66.916,28.971 66.95,29 66.99,29 L67.018,29 C67.053,29 67.083,28.974 67.088,28.94 C67.42,26.708 68.701,25.423 70.932,25.089 C70.971,25.083 71,25.049 71,25.01 Z" id="Fill-6821" fill="#FFEB3B" sketch:type="MSShapeGroup"></path>
            <path d="M65.872,14.667 C65.946,14.656 66,14.593 66,14.52 L66,14.481 C66,14.407 65.946,14.344 65.872,14.333 C61.695,13.706 59.294,11.304 58.667,7.128 C58.656,7.054 58.593,7 58.519,7 L58.481,7 C58.407,7 58.344,7.055 58.333,7.128 C57.705,11.304 55.305,13.706 51.127,14.333 C51.054,14.344 51,14.407 51,14.481 L51,14.52 C51,14.594 51.054,14.656 51.128,14.667 C55.305,15.294 57.705,17.696 58.333,21.873 C58.344,21.946 58.407,22 58.481,22 L58.535,22 C58.6,22 58.655,21.953 58.665,21.888 C59.288,17.702 61.69,15.295 65.872,14.667" id="Fill-6822" fill="#FFEB3B" sketch:type="MSShapeGroup"></path>
        </g>
    </g>
</svg>