<?xml version="1.0" encoding="UTF-8" standalone="no"?>
<svg width="111px" height="110px" viewBox="0 0 111 110" version="1.1" xmlns="http://www.w3.org/2000/svg" xmlns:xlink="http://www.w3.org/1999/xlink" xmlns:sketch="http://www.bohemiancoding.com/sketch/ns">
    <!-- Generator: Sketch 3.4 (15588) - http://www.bohemiancoding.com/sketch -->
    <title>Group Copy 6</title>
    <desc>Created with Sketch.</desc>
    <defs></defs>
    <g id="ola-search-icon" stroke="none" stroke-width="1" fill="none" fill-rule="evenodd" sketch:type="MSPage">
        <g id="Group-Copy-6" sketch:type="MSLayerGroup">
            <path d="M110.1405,55 C110.1405,85.376 85.5165,110 55.1405,110 C24.7645,110 0.1405,85.376 0.1405,55 C0.1405,24.624 24.7645,0 55.1405,0 C85.5165,0 110.1405,24.624 110.1405,55" id="Fill-789" fill="#1EBEA5" sketch:type="MSShapeGroup"></path>
            <g id="Group" transform="translate(24.000000, 31.000000)" sketch:type="MSShapeGroup">
                <path d="M64,44 C64,46.209 62.209,48 60,48 L20,48 C17.791,48 16,46.209 16,44 L16,20 C16,17.791 17.791,16 20,16 L60,16 C62.209,16 64,17.791 64,20 L64,44 Z" id="Fill-4509" fill="#044C40"></path>
                <path d="M56,36 C56,38.209 54.209,40 52,40 L12,40 C9.791,40 8,38.209 8,36 L8,12 C8,9.791 9.791,8 12,8 L52,8 C54.209,8 56,9.791 56,12 L56,36 Z" id="Fill-4510" fill="#0A685C"></path>
                <path d="M48,28 C48,30.209 46.209,32 44,32 L4,32 C1.791,32 0,30.209 0,28 L0,4 C0,1.791 1.791,0 4,0 L44,0 C46.209,0 48,1.791 48,4 L48,28 Z" id="Fill-4511" fill="#1EBEA5"></path>
                <path d="M4.02325947,0 C1.80141443,0 0,1.80691249 0,4.03553878 L0,28.2487714 C0,29.3151626 0.420430614,30.2786474 1.09432658,31 L32,0 L4.02325947,0 Z" id="Fill-4512" fill="#36F0D7"></path>
                <path d="M44,0 L4,0 C1.791,0 0,1.791 0,4 L0,8 L48,8 L48,4 C48,1.791 46.209,0 44,0" id="Fill-4513" fill="#FFFFFF"></path>
                <path d="M8,4 C8,5.104 7.105,6 6,6 C4.896,6 4,5.104 4,4 C4,2.896 4.896,2 6,2 C7.105,2 8,2.896 8,4" id="Fill-4514" fill="#1EBEA5"></path>
                <path d="M14,4 C14,5.104 13.105,6 12,6 C10.896,6 10,5.104 10,4 C10,2.896 10.896,2 12,2 C13.105,2 14,2.896 14,4" id="Fill-4515" fill="#1EBEA5"></path>
                <path d="M20,4 C20,5.104 19.105,6 18,6 C16.896,6 16,5.104 16,4 C16,2.896 16.896,2 18,2 C19.105,2 20,2.896 20,4" id="Fill-4516" fill="#1EBEA5"></path>
            </g>
            <path d="M45.8186468,21.1134057 C45.8527904,21.043899 45.9235166,21 46.0007463,21 C46.0781792,21 46.1489054,21.043899 46.183049,21.1134057 L47.2620294,23.2996162 C47.2917018,23.3595708 47.3488112,23.401031 47.4150661,23.4107863 L49.8276816,23.7611653 C49.9043016,23.7723433 49.9677113,23.8259976 49.9916931,23.8995691 C50.015675,23.9731406 49.9957578,24.0540285 49.9402744,24.1078861 L48.1944765,25.8095817 C48.146716,25.856326 48.1247665,25.9235972 48.1361477,25.9894457 L48.5483105,28.3923058 C48.5613176,28.4685193 48.5300192,28.545749 48.4674225,28.5910707 C48.4048258,28.6365956 48.3217023,28.6426927 48.2532117,28.6067199 L46.0954543,27.4722561 C46.0363126,27.4409577 45.9655864,27.4409577 45.9062415,27.4722561 L43.7482808,28.6067199 C43.6799935,28.6426927 43.59687,28.6365956 43.5342733,28.5910707 C43.4716765,28.545749 43.4403782,28.4685193 43.4535885,28.3923058 L43.8657513,25.9894457 C43.8769293,25.9235972 43.8549798,25.856326 43.8072193,25.8095817 L42.0614214,24.1078861 C42.005938,24.0540285 41.9860208,23.9731406 42.0100027,23.8995691 C42.0337813,23.8259976 42.0973942,23.7723433 42.1740142,23.7611653 L44.5866297,23.4107863 C44.6528846,23.401031 44.709994,23.3595708 44.7396664,23.2996162 L45.8186468,21.1134057 Z" id="Fill-6871" fill="#FFEB3B" sketch:type="MSShapeGroup"></path>
            <path d="M56.1584453,7.21259068 C56.2224511,7.08229317 56.3550345,7 56.4998095,7 C56.6449655,7 56.7775489,7.08229317 56.8415547,7.21259068 L58.8642141,11.3108666 C58.9198382,11.4232577 59.0268955,11.500979 59.1510972,11.5192664 L63.6737925,12.1760878 C63.8174246,12.1970421 63.9362925,12.2976226 63.9812489,12.4355399 C64.0262054,12.5734571 63.9888687,12.7250899 63.8848593,12.8260514 L60.6121819,16.0160546 C60.52265,16.1036816 60.4815034,16.2297882 60.5028387,16.353228 L61.2754801,20.8576359 C61.2998633,21.000506 61.2411913,21.145281 61.1238473,21.2302411 C61.0065034,21.3155822 60.8506797,21.3270118 60.7222871,21.2595771 L56.6773494,19.1329083 C56.5664822,19.0742363 56.4338988,19.0742363 56.3226506,19.1329083 L52.2773319,21.2595771 C52.1493203,21.3270118 51.9934966,21.3155822 51.8761527,21.2302411 C51.7588087,21.145281 51.7001367,21.000506 51.7249009,20.8576359 L52.4975423,16.353228 C52.5184966,16.2297882 52.47735,16.1036816 52.3878181,16.0160546 L49.1151407,12.8260514 C49.0111313,12.7250899 48.9737946,12.5734571 49.0187511,12.4355399 C49.0633265,12.2976226 49.1825754,12.1970421 49.3262075,12.1760878 L53.8489028,11.5192664 C53.9731045,11.500979 54.0801618,11.4232577 54.1357859,11.3108666 L56.1584453,7.21259068 Z" id="Fill-6871" fill="#FFEB3B" sketch:type="MSShapeGroup"></path>
        </g>
    </g>
</svg>