<?xml version="1.0" encoding="UTF-8" standalone="no"?>
<svg width="110px" height="110px" viewBox="0 0 110 110" version="1.1" xmlns="http://www.w3.org/2000/svg" xmlns:xlink="http://www.w3.org/1999/xlink" xmlns:sketch="http://www.bohemiancoding.com/sketch/ns">
    <!-- Generator: Sketch 3.4 (15588) - http://www.bohemiancoding.com/sketch -->
    <title>Group Copy 3</title>
    <desc>Created with Sketch.</desc>
    <defs></defs>
    <g id="ola-search-icon" stroke="none" stroke-width="1" fill="none" fill-rule="evenodd" sketch:type="MSPage">
        <g id="Group-Copy-3" sketch:type="MSLayerGroup">
            <path d="M110,55 C110,85.376 85.376,110 55,110 C24.624,110 0,85.376 0,55 C0,24.624 24.624,0 55,0 C85.376,0 110,24.624 110,55" id="Fill-789-Copy" fill="#567AF5" sketch:type="MSShapeGroup"></path>
            <g id="Group" transform="translate(40.000000, 21.000000)" sketch:type="MSShapeGroup">
                <path d="M14.5,12.0417582 C6.49189824,12.0417582 0,9.33707504 0,6 L0,28.9582418 C0,32.2953169 6.49189824,35 14.5,35 C22.5081018,35 29,32.2953169 29,28.9582418 L29,6 C29,9.33707504 22.5081018,12.0417582 14.5,12.0417582" id="Fill-4307" fill="#D8DEFF"></path>
                <path d="M0,28.9582418 C0,32.2947679 6.71518891,35 15,35 L15,12.0417582 C6.71518891,12.0417582 0,9.33707504 0,6 L0,28.9582418 Z" id="Fill-4308" fill="#EDF0FF"></path>
                <path d="M29,5.99972741 C29,9.31388851 22.5079789,12 14.4997255,12 C6.49202113,12 0,9.31388851 0,5.99972741 C0,2.68611149 6.49202113,0 14.4997255,0 C22.5079789,0 29,2.68611149 29,5.99972741" id="Fill-4309" fill="#FFFFFF"></path>
                <path d="M14.5,18.7273253 C5.82656924,18.7273253 0,15.7650752 0,13 L0,15.7407897 C2.34896267,18.2664794 7.88623457,20 14.5,20 C21.1137654,20 26.6504884,18.2664794 29,15.7407897 L29,13 C29,15.7650752 23.1728818,18.7273253 14.5,18.7273253" id="Fill-4310" fill="#8C9EFF"></path>
                <path d="M14.5,26.7273253 C5.82656924,26.7273253 0,23.7656534 0,21 L0,23.7413679 C2.34896267,26.2664794 7.88623457,28 14.5,28 C21.1137654,28 26.6504884,26.2664794 29,23.7413679 L29,21 C29,23.7656534 23.1728818,26.7273253 14.5,26.7273253" id="Fill-4311" fill="#8C9EFF"></path>
                <path d="M15,18.7273253 C6.02748542,18.7273253 0,15.7650752 0,13 L0,15.7407897 C2.42996138,18.2664794 8.1581737,20 15,20 L15,18.7273253 Z" id="Fill-4312" fill="#D8DEFF"></path>
                <path d="M0,21 L0,23.7411415 C2.42996138,26.2660444 8.1581737,28 15,28 L15,26.7268522 C6.02748542,26.7268522 0,23.765425 0,21" id="Fill-4313" fill="#D8DEFF"></path>
            </g>
            <g id="Group-Copy" transform="translate(58.000000, 35.000000)" sketch:type="MSShapeGroup">
                <path d="M17,14.0834406 C7.61119104,14.0834406 0,10.9124328 0,7 L0,33.9165594 C0,37.8289922 7.61119104,41 17,41 C26.388809,41 34,37.8289922 34,33.9165594 L34,7 C34,10.9124328 26.388809,14.0834406 17,14.0834406" id="Fill-4307" fill="#D8DEFF"></path>
                <path d="M0,33.9165594 C0,37.8283486 7.61054744,41 17,41 L17,14.0834406 C7.61054744,14.0834406 0,10.9124328 0,7 L0,33.9165594 Z" id="Fill-4308" fill="#EDF0FF"></path>
                <path d="M34,6.99968198 C34,10.8662033 26.3886649,14 16.9996782,14 C7.61133511,14 0,10.8662033 0,6.99968198 C0,3.13379674 7.61133511,0 16.9996782,0 C26.3886649,0 34,3.13379674 34,6.99968198" id="Fill-4309" fill="#FFFFFF"></path>
                <path d="M17,21.5455146 C6.83115015,21.5455146 0,18.1600859 0,15 L0,18.1323311 C2.75395624,21.0188336 9.24593019,23 17,23 C24.7540698,23 31.2454002,21.0188336 34,18.1323311 L34,15 C34,18.1600859 27.1682063,21.5455146 17,21.5455146" id="Fill-4310" fill="#8C9EFF"></path>
                <path d="M17,30.5455146 C6.83115015,30.5455146 0,27.1607467 0,24 L0,27.1329919 C2.75395624,30.0188336 9.24593019,32 17,32 C24.7540698,32 31.2454002,30.0188336 34,27.1329919 L34,24 C34,27.1607467 27.1682063,30.5455146 17,30.5455146" id="Fill-4311" fill="#8C9EFF"></path>
                <path d="M17,21.5455146 C6.83115015,21.5455146 0,18.1600859 0,15 L0,18.1323311 C2.75395624,21.0188336 9.24593019,23 17,23 L17,21.5455146 Z" id="Fill-4312" fill="#D8DEFF"></path>
                <path d="M0,24 L0,27.1327331 C2.75395624,30.0183365 9.24593019,32 17,32 L17,30.544974 C6.83115015,30.544974 0,27.1604857 0,24" id="Fill-4313" fill="#D8DEFF"></path>
            </g>
            <g id="Group-Copy-2" transform="translate(25.000000, 44.000000)" sketch:type="MSShapeGroup">
                <path d="M18.5904571,15.2475125 C8.44342909,15.2475125 0.217575429,11.8602 0.217575429,7.6808875 L0.217575429,36.4335125 C0.217575429,40.612825 8.44342909,44.0001375 18.5904571,44.0001375 C28.7374851,44.0001375 36.9633388,40.612825 36.9633388,36.4335125 L36.9633388,7.6808875 C36.9633388,11.8602 28.7374851,15.2475125 18.5904571,15.2475125" id="Fill-4307" fill="#D8DEFF"></path>
                <path d="M0.217714544,7.681025 L0.217714544,36.43365 C0.217714544,40.612275 8.44287263,44.000275 18.5905962,44.000275 L18.5905962,15.24765 C8.44287263,15.24765 0.217714544,11.8603375 0.217714544,7.681025" id="Fill-4308" fill="#EDF0FF"></path>
                <path d="M36.9630605,7.681025 C36.9630605,11.8603375 28.7372069,15.24765 18.5901789,15.24765 C8.44384643,15.24765 0.217992773,11.8603375 0.217992773,7.681025 C0.217992773,3.5024 8.44384643,0.1150875 18.5901789,0.1150875 C28.7372069,0.1150875 36.9630605,3.5024 36.9630605,7.681025" id="Fill-4309" fill="#FFFFFF"></path>
                <path d="M18.5904571,22.8140687 C7.60039386,22.8140687 0.217575429,19.2920062 0.217575429,16.0043812 L0.217575429,19.2631312 C3.19393496,22.2661312 10.2101861,24.3272562 18.5904571,24.3272562 C26.9707281,24.3272562 33.9862836,22.2661312 36.9633388,19.2631312 L36.9633388,16.0043812 C36.9633388,19.2920062 29.5798248,22.8140687 18.5904571,22.8140687" id="Fill-4310" fill="#8C9EFF"></path>
                <path d="M18.5904571,32.6502 C7.60039386,32.6502 0.217575429,29.128825 0.217575429,25.8405125 L0.217575429,29.09995 C3.19393496,32.1022625 10.2101861,34.1633875 18.5904571,34.1633875 C26.9707281,34.1633875 33.9862836,32.1022625 36.9633388,29.09995 L36.9633388,25.8405125 C36.9633388,29.128825 29.5798248,32.6502 18.5904571,32.6502" id="Fill-4311" fill="#8C9EFF"></path>
                <path d="M18.5904571,22.8140687 C7.60039386,22.8140687 0.217575429,19.2920062 0.217575429,16.0043812 L0.217575429,19.2631312 C3.19393496,22.2661312 10.2101861,24.3272562 18.5904571,24.3272562 L18.5904571,22.8140687 Z" id="Fill-4312" fill="#D8DEFF"></path>
                <path d="M0.217714544,25.8403063 L0.217714544,29.0997438 C3.19407407,32.1020562 10.2103252,34.1638688 18.5905962,34.1638688 L18.5905962,32.6499938 C7.60053297,32.6499938 0.217714544,29.1286188 0.217714544,25.8403063" id="Fill-4313" fill="#D8DEFF"></path>
            </g>
            <path d="M76,24.6430714 C76,24.2882143 75.712,24.0002143 75.3571429,24.0002143 L73.6432857,24.0002143 C73.2877857,24.0002143 73.0004286,23.7122143 73.0004286,23.3573571 L73.0004286,21.6428571 C73.0004286,21.288 72.7124286,21 72.3575714,21 L70.6430714,21 C70.2882143,21 70.0002143,21.288 70.0002143,21.6428571 L70.0002143,23.3573571 C70.0002143,23.7122143 69.7122143,24.0002143 69.3573571,24.0002143 L67.6428571,24.0002143 C67.288,24.0002143 67,24.2882143 67,24.6430714 L67,26.3575714 C67,26.7124286 67.288,27.0004286 67.6428571,27.0004286 L69.3573571,27.0004286 C69.7122143,27.0004286 70.0002143,27.2884286 70.0002143,27.6432857 L70.0002143,29.3571429 C70.0002143,29.7126429 70.2882143,30 70.6430714,30 L72.3575714,30 C72.7124286,30 73.0004286,29.7126429 73.0004286,29.3571429 L73.0004286,27.6432857 C73.0004286,27.2884286 73.2877857,27.0004286 73.6432857,27.0004286 L75.3571429,27.0004286 C75.712,27.0004286 76,26.7124286 76,26.3575714 L76,24.6430714 Z" id="Fill-4182" fill="#FF4081" sketch:type="MSShapeGroup"></path>
            <path d="M67,13.0717857 C67,12.4803571 66.52,12.0003571 65.9285714,12.0003571 L63.0721429,12.0003571 C62.4796429,12.0003571 62.0007143,11.5203571 62.0007143,10.9289286 L62.0007143,8.07142857 C62.0007143,7.48 61.5207143,7 60.9292857,7 L58.0717857,7 C57.4803571,7 57.0003571,7.48 57.0003571,8.07142857 L57.0003571,10.9289286 C57.0003571,11.5203571 56.5203571,12.0003571 55.9289286,12.0003571 L53.0714286,12.0003571 C52.48,12.0003571 52,12.4803571 52,13.0717857 L52,15.9292857 C52,16.5207143 52.48,17.0007143 53.0714286,17.0007143 L55.9289286,17.0007143 C56.5203571,17.0007143 57.0003571,17.4807143 57.0003571,18.0721429 L57.0003571,20.9285714 C57.0003571,21.5210714 57.4803571,22 58.0717857,22 L60.9292857,22 C61.5207143,22 62.0007143,21.5210714 62.0007143,20.9285714 L62.0007143,18.0721429 C62.0007143,17.4807143 62.4796429,17.0007143 63.0721429,17.0007143 L65.9285714,17.0007143 C66.52,17.0007143 67,16.5207143 67,15.9292857 L67,13.0717857 Z" id="Fill-4182-Copy" fill="#FF4081" sketch:type="MSShapeGroup"></path>
        </g>
    </g>
</svg>