<?xml version="1.0" encoding="UTF-8" standalone="no"?>
<svg width="92px" height="78px" viewBox="0 0 92 78" version="1.1" xmlns="http://www.w3.org/2000/svg" xmlns:xlink="http://www.w3.org/1999/xlink" xmlns:sketch="http://www.bohemiancoding.com/sketch/ns">
    <!-- Generator: Sketch 3.4 (15588) - http://www.bohemiancoding.com/sketch -->
    <title>ola-logo</title>
    <desc>Created with Sketch.</desc>
    <defs></defs>
    <g id="Page-1" stroke="none" stroke-width="1" fill="none" fill-rule="evenodd" sketch:type="MSPage">
        <g id="ola-logo" sketch:type="MSLayerGroup" fill="#536DFE">
            <g id="Page-1" sketch:type="MSShapeGroup">
                <g id="logo-3">
                    <g id="Imported-Layers">
                        <path d="M34.8410901,37.0611953 C34.8410901,34.7465224 34.4402618,32.5581176 33.6415418,30.4952471 C32.8420877,28.4331106 31.6939277,26.6124988 30.2007324,25.0341459 C28.706803,23.4557929 26.8964689,22.2041224 24.7719324,21.2776659 C22.6451936,20.3519435 20.2358195,19.8887153 17.5423418,19.8887153 C14.8488642,19.8887153 12.4284783,20.3519435 10.2819183,21.2776659 C8.13535829,22.2041224 6.31474652,23.4557929 4.82081711,25.0341459 C3.3268877,26.6124988 2.17946182,28.4331106 1.3800077,30.4952471 C0.579819465,32.5581176 0.181193583,34.7465224 0.181193583,37.0611953 C0.181193583,39.3340235 0.579819465,41.5018729 1.3800077,43.5640094 C2.17946182,45.6261459 3.3268877,47.4467576 4.82081711,49.0251106 C6.31474652,50.6034635 8.13535829,51.8558682 10.2819183,52.7808565 C12.4284783,53.7065788 14.8488642,54.1705412 17.5423418,54.1705412 C20.2358195,54.1705412 22.6569395,53.7065788 24.8027653,52.7808565 C26.9493253,51.8558682 28.7589253,50.6034635 30.2322995,49.0251106 C31.7056736,47.4467576 32.8420877,45.6261459 33.6415418,43.5640094 C34.4402618,41.5018729 34.8410901,39.3340235 34.8410901,37.0611953 L34.8410901,37.0611953 L34.8410901,37.0611953 Z M25.5288077,41.0386447 C25.0868689,42.2594824 24.476083,43.3114729 23.6986524,44.1953506 C22.9190195,45.0792282 22.0035748,45.7634259 20.9515842,46.2472094 C19.8995936,46.7309929 18.7631795,46.9732518 17.5423418,46.9732518 C16.3215042,46.9732518 15.1850901,46.7309929 14.1330995,46.2472094 C13.0811089,45.7634259 12.1656642,45.0792282 11.3867653,44.1953506 C10.6078665,43.3114729 9.99781476,42.26976 9.55587594,41.0702118 C9.11393711,39.8699294 8.89370182,38.5345694 8.89370182,37.0611953 C8.89370182,35.6304 9.11393711,34.3053176 9.55587594,33.0837459 C9.99781476,31.8629082 10.6078665,30.8109176 11.3867653,29.92704 C12.1656642,29.0431624 13.0811089,28.3486871 14.1330995,27.8436141 C15.1850901,27.3385412 16.3215042,27.0852706 17.5423418,27.0852706 C18.7631795,27.0852706 19.8995936,27.3282635 20.9515842,27.8120471 C22.0035748,28.2958306 22.9190195,28.9800282 23.6986524,29.8639059 C24.476083,30.7477835 25.0868689,31.7997741 25.5288077,33.0198776 C25.9707465,34.2414494 26.1917159,35.5672659 26.1917159,36.9980612 C26.1917159,38.4714353 25.9707465,39.8178071 25.5288077,41.0386447 L25.5288077,41.0386447 L25.5288077,41.0386447 Z" id="Fill-1"></path>
                        <path d="M81.8701348,48.2359341 L82.0602712,50.0668235 C82.2702289,51.2458165 82.8061348,52.1928282 83.6694571,52.9078588 C84.5320453,53.6228894 85.8923653,53.9811388 87.4927418,53.9811388 C88.5447324,53.9811388 89.8793583,53.8328471 91.3475936,53.5392 L91.3475936,49.3855624 C90.6134759,49.3444518 89.8022759,48.4517647 89.5570806,46.8609318 C89.4822006,46.3742118 89.1452406,44.7004235 89.1452406,43.8165459 L89.1452406,33.5256847 C89.1452406,29.1055624 87.7900595,25.7286212 85.1604501,23.3926588 C82.5293724,21.0566965 78.8169395,19.8887153 74.0605912,19.8887153 C69.1361301,19.8887153 64.5390853,21.2989553 60.2878101,24.1187012 L62.8719042,29.4851012 C64.6396595,28.2649976 66.3618995,27.3385412 68.0459653,26.7072 C69.7292971,26.0758588 71.4544736,25.7601882 73.2222289,25.7601882 C75.6631701,25.7601882 77.3677912,26.3496847 78.6091842,27.5279435 C79.8505771,28.7069365 80.3358289,30.3910024 80.3358289,32.5786729 L80.3358289,34.4726965 C79.6017112,34.0102024 78.1246665,33.6519529 76.7151606,33.3994165 C75.3041865,33.14688 73.9306524,33.0198776 72.4580124,33.0198776 C70.3958759,33.0198776 68.5363559,33.2834259 66.8104453,33.8097882 C65.0845348,34.3361506 63.6177677,35.0621929 62.3763748,35.9879153 C61.1342477,36.9143718 60.1747559,38.0397741 59.4810148,39.3655906 C58.7865395,40.6914071 58.4437065,42.1332141 58.4437065,43.6902776 C58.4437065,44.0059482 58.4649959,44.3135435 58.4899559,44.6189365 C57.1685442,45.0616094 55.6680077,45.5409882 55.2539653,45.6547765 C54.5359983,45.8537224 53.8796971,45.9528282 53.2843277,45.9528282 C51.994483,45.9528282 51.120883,45.5564047 50.4278759,44.7628235 C49.7326665,43.9707106 49.5028877,42.8555859 49.5028877,41.4174494 L49.5028877,0 L39.2252406,0 L39.2252406,44.9118494 C39.2252406,47.9856 40.1215983,50.3516612 41.8320924,52.0122353 C43.5411183,53.6728094 45.9783889,54.5023624 49.1013253,54.5023624 C50.5379936,54.5023624 52.1596595,54.3283765 53.9442995,53.9818729 C55.5615606,53.6684047 60.1160265,52.1737412 61.9513206,51.4161318 C62.9012689,52.2420141 64.0009771,52.9034541 65.2636595,53.3813647 C66.6518759,53.9069929 68.1465395,54.1705412 69.7469159,54.1705412 C72.1460124,54.1705412 74.3982853,53.6654682 76.5030006,52.6553224 C78.6077159,51.6451765 80.3967606,50.1718024 81.8701348,48.2359341 L81.8701348,48.2359341 L81.8701348,48.2359341 Z M80.3358289,42.8064 C80.3358289,43.6902776 80.0076783,44.4897318 79.0826901,45.2054965 C78.3669253,46.0475294 77.4353301,46.7207153 76.1520924,47.2257882 C74.8673865,47.7308612 73.5445065,47.9833976 72.1137112,47.9833976 C70.5140689,47.9833976 69.1838477,47.5098918 68.0892783,46.56288 C66.9947089,45.6158682 66.4573348,44.4273318 66.4573348,42.9958024 C66.4573348,41.4805835 67.1554806,40.2281788 68.5444312,39.2393224 C69.9333818,38.2504659 71.7238948,37.7556706 73.9130336,37.7556706 C75.0068689,37.7556706 76.0089395,37.8716612 77.1879324,38.1029082 C78.3654571,38.3341553 79.6017112,38.6395482 80.3358289,39.0183529 L80.3358289,42.8064 L80.3358289,42.8064 L80.3358289,42.8064 Z" id="Fill-2"></path>
                        <path d="M7.55246888,68.5621835 L5.70542888,68.2795482 C5.05353241,68.1929224 4.59691123,67.9756235 4.29298652,67.6929882 C3.96703829,67.3883294 3.85838888,66.9977788 3.85838888,66.5844706 C3.85838888,65.5192659 4.61893476,64.6287812 6.22738652,64.6287812 C7.24854417,64.6287812 8.4436877,64.7594541 9.40024299,65.6939859 L11.3118853,63.8028988 C9.98680299,62.5211294 8.4436877,61.9991718 6.31401241,61.9991718 C2.96717005,61.9991718 0.924854759,63.9335718 0.924854759,66.69312 C0.924854759,67.9969129 1.29411594,69.0188047 2.03337241,69.7360376 C2.72858182,70.4092235 3.66311358,70.8225318 5.03224299,71.0178071 L6.87854888,71.3004424 C7.66185241,71.4090918 7.96577711,71.5397647 8.26970182,71.8224 C8.59565005,72.1476141 8.74761241,72.5829459 8.74761241,73.1041694 C8.74761241,74.3426259 7.79179123,75.0378353 5.98806417,75.0378353 C4.57562182,75.0378353 3.24980535,74.7118871 2.27196064,73.7340424 L0.31627123,75.6897318 C1.83736299,77.2328471 3.61906652,77.7327812 5.96604064,77.7327812 C9.22625711,77.7327812 11.7039042,76.0377035 11.7039042,73.0388329 C11.7039042,71.6484141 11.3339089,70.5398965 10.5087606,69.7793506 C9.83484064,69.1274541 8.96491123,68.7581929 7.55246888,68.5621835" id="Fill-3"></path>
                        <path d="M16.4675936,77.8164706 L26.7452406,77.8164706 L26.7452406,74.88 L19.4040642,74.88 L19.4040642,71.2094118 L25.2770053,71.2094118 L25.2770053,68.2729412 L19.4040642,68.2729412 L19.4040642,64.6023529 L26.7452406,64.6023529 L26.7452406,62.4 L16.4675936,62.4 L16.4675936,77.8164706" id="Fill-4"></path>
                        <path d="M36.1881959,62.4 L30.5597159,77.8164706 L33.7105489,77.8164706 L34.6450806,74.88 L40.1428877,74.88 L41.0561301,77.8164706 L44.206963,77.8164706 L38.5571936,62.4 L36.1881959,62.4 L36.1881959,62.4 L36.1881959,62.4 Z M35.4929865,72.6776471 L37.4486759,67.0491671 L39.3390289,72.6776471 L35.4929865,72.6776471 L35.4929865,72.6776471 L35.4929865,72.6776471 Z" id="Fill-5"></path>
                        <path d="M59.5632359,67.0021835 C59.5632359,64.4166212 57.6941724,62.4 54.5433395,62.4 L48.7687701,62.4 L48.7687701,77.8164706 L51.7052406,77.8164706 L51.7052406,71.2094118 L53.6748783,71.2094118 L56.6950383,77.8164706 L60.1931089,77.8164706 L56.7383512,71.1051671 C58.2374195,70.56192 59.5632359,69.1759059 59.5632359,67.0021835 L59.5632359,67.0021835 L59.5632359,67.0021835 Z M54.3480642,69.0070588 L51.7052406,69.0070588 L51.7052406,64.6023529 L54.3480642,64.6023529 C55.6731465,64.6023529 56.5430759,65.6095624 56.5430759,66.8047059 C56.5430759,67.9998494 55.6731465,69.0070588 54.3480642,69.0070588 L54.3480642,69.0070588 L54.3480642,69.0070588 Z" id="Fill-6"></path>
                        <path d="M69.8673112,64.6753059 C71.3663795,64.6753059 72.1489489,65.3662783 72.4536077,66.847462 L75.5391042,66.847462 C74.9738336,63.8850946 72.7575324,61.9565929 69.8673112,61.9565929 C68.0848736,61.9565929 66.7810806,62.5705435 65.7166101,63.6221841 C64.1734948,65.1789085 64.1514712,66.943739 64.1514712,69.925362 C64.1514712,72.9069854 64.1734948,74.6658913 65.7166101,76.2226153 C66.7810806,77.2749967 68.0848736,77.7860051 69.8673112,77.7860051 C72.736243,77.7860051 74.9738336,76.4751571 75.5391042,72.7721977 L72.4748971,72.7721977 C72.1709724,74.2533814 71.3663795,75.0695137 69.8673112,75.0695137 C69.0414289,75.0695137 68.3675089,74.8051225 67.9336453,74.3007795 C67.3683748,73.6431336 67.1723653,72.8958765 67.1723653,69.9149938 C67.1723653,66.9333708 67.3683748,66.1550088 67.9336453,65.4973629 C68.3675089,64.9937603 69.0414289,64.6753059 69.8673112,64.6753059" id="Fill-7"></path>
                        <path d="M88.411123,62.4 L88.411123,68.2729412 L83.2722995,68.2729412 L83.2722995,62.4 L80.3358289,62.4 L80.3358289,77.8164706 L83.2722995,77.8164706 L83.2722995,71.2094118 L88.411123,71.2094118 L88.411123,77.8164706 L91.3475936,77.8164706 L91.3475936,62.4 L88.411123,62.4" id="Fill-8"></path>
                    </g>
                </g>
            </g>
        </g>
    </g>
</svg>