<?xml version="1.0" encoding="UTF-8" standalone="no"?>
<svg width="219px" height="187px" viewBox="0 0 219 187" version="1.1" xmlns="http://www.w3.org/2000/svg" xmlns:xlink="http://www.w3.org/1999/xlink" xmlns:sketch="http://www.bohemiancoding.com/sketch/ns">
    <!-- Generator: Sketch 3.4 (15588) - http://www.bohemiancoding.com/sketch -->
    <title>Imported Layers</title>
    <desc>Created with Sketch.</desc>
    <defs></defs>
    <g id="Page-1" stroke="none" stroke-width="1" fill="none" fill-rule="evenodd" sketch:type="MSPage">
        <g id="logo-3" sketch:type="MSArtboardGroup" fill="#FFFFFF">
            <g id="Imported-Layers" sketch:type="MSLayerGroup">
                <path d="M83.52928,88.85184 C83.52928,83.30256 82.56832,78.056 80.65344,73.1104 C78.7368,68.16656 75.98416,63.80176 72.40432,60.01776 C68.82272,56.23376 64.48256,53.23296 59.38912,51.01184 C54.2904,48.79248 48.51408,47.68192 42.05664,47.68192 C35.5992,47.68192 29.79648,48.79248 24.65024,51.01184 C19.504,53.23296 15.1392,56.23376 11.5576,60.01776 C7.976,63.80176 5.22512,68.16656 3.30848,73.1104 C1.39008,78.056 0.4344,83.30256 0.4344,88.85184 C0.4344,94.3008 1.39008,99.49808 3.30848,104.44192 C5.22512,109.38576 7.976,113.75056 11.5576,117.53456 C15.1392,121.31856 19.504,124.32112 24.65024,126.53872 C29.79648,128.75808 35.5992,129.8704 42.05664,129.8704 C48.51408,129.8704 54.31856,128.75808 59.46304,126.53872 C64.60928,124.32112 68.94768,121.31856 72.48,117.53456 C76.01232,113.75056 78.7368,109.38576 80.65344,104.44192 C82.56832,99.49808 83.52928,94.3008 83.52928,88.85184 L83.52928,88.85184 Z M61.20368,98.38752 C60.14416,101.3144 58.67984,103.83648 56.816,105.95552 C54.94688,108.07456 52.75216,109.71488 50.23008,110.87472 C47.708,112.03456 44.98352,112.61536 42.05664,112.61536 C39.12976,112.61536 36.40528,112.03456 33.8832,110.87472 C31.36112,109.71488 29.1664,108.07456 27.29904,105.95552 C25.43168,103.83648 23.96912,101.33904 22.9096,98.4632 C21.85008,95.5856 21.32208,92.38416 21.32208,88.85184 C21.32208,85.4216 21.85008,82.2448 22.9096,79.31616 C23.96912,76.38928 25.43168,73.8672 27.29904,71.74816 C29.1664,69.62912 31.36112,67.96416 33.8832,66.75328 C36.40528,65.5424 39.12976,64.9352 42.05664,64.9352 C44.98352,64.9352 47.708,65.51776 50.23008,66.6776 C52.75216,67.83744 54.94688,69.47776 56.816,71.5968 C58.67984,73.71584 60.14416,76.23792 61.20368,79.16304 C62.2632,82.09168 62.79296,85.27024 62.79296,88.70048 C62.79296,92.2328 62.2632,95.46064 61.20368,98.38752 L61.20368,98.38752 Z" id="Fill-1" sketch:type="MSShapeGroup"></path>
                <path d="M196.2784,115.64256 L196.73424,120.032 C197.2376,122.85856 198.5224,125.12896 200.59216,126.8432 C202.66016,128.55744 205.92144,129.41632 209.75824,129.41632 C212.28032,129.41632 215.48,129.0608 219,128.3568 L219,118.39872 C217.24,118.30016 215.2952,116.16 214.70736,112.34608 C214.52784,111.1792 213.72,107.1664 213.72,105.04736 L213.72,80.37568 C213.72,69.77872 210.47104,61.68272 204.16672,56.0824 C197.85888,50.48208 188.95856,47.68192 177.55552,47.68192 C165.74944,47.68192 154.72832,51.06288 144.53616,57.82304 L150.73136,70.68864 C154.96944,67.76352 159.0984,65.5424 163.13584,64.0288 C167.17152,62.5152 171.30752,61.7584 175.5456,61.7584 C181.3976,61.7584 185.48432,63.17168 188.46048,65.99648 C191.43664,68.82304 192.6,72.86048 192.6,78.10528 L192.6,82.64608 C190.84,81.53728 187.29888,80.6784 183.91968,80.07296 C180.53696,79.46752 177.244,79.16304 173.71344,79.16304 C168.7696,79.16304 164.31152,79.79488 160.17376,81.0568 C156.036,82.31872 152.51952,84.05936 149.54336,86.27872 C146.56544,88.49984 144.26512,91.19792 142.60192,94.37648 C140.93696,97.55504 140.11504,101.01168 140.11504,104.74464 C140.11504,105.50144 140.16608,106.23888 140.22592,106.97104 C137.05792,108.03232 133.46048,109.1816 132.46784,109.4544 C130.74656,109.93136 129.17312,110.16896 127.74576,110.16896 C124.65344,110.16896 122.55904,109.21856 120.8976,107.316 C119.23088,105.41696 118.68,102.74352 118.68,99.29568 L118.68,0 L94.04,0 L94.04,107.67328 C94.04,115.0424 96.18896,120.71488 100.28976,124.696 C104.38704,128.67712 110.23024,130.66592 117.71728,130.66592 C121.1616,130.66592 125.04944,130.2488 129.328,129.41808 C133.20528,128.66656 144.12432,125.0832 148.52432,123.26688 C150.80176,125.24688 153.43824,126.83264 156.46544,127.9784 C159.7936,129.23856 163.37696,129.8704 167.21376,129.8704 C172.96544,129.8704 178.36512,128.65952 183.41104,126.23776 C188.45696,123.816 192.74608,120.28368 196.2784,115.64256 L196.2784,115.64256 Z M192.6,102.6256 C192.6,104.74464 191.81328,106.66128 189.59568,108.37728 C187.87968,110.396 185.64624,112.00992 182.56976,113.2208 C179.48976,114.43168 176.31824,115.03712 172.888,115.03712 C169.05296,115.03712 165.86384,113.90192 163.23968,111.63152 C160.61552,109.36112 159.3272,106.51168 159.3272,103.07968 C159.3272,99.44704 161.00096,96.44448 164.33088,94.07376 C167.6608,91.70304 171.95344,90.5168 177.20176,90.5168 C179.82416,90.5168 182.22656,90.79488 185.05312,91.34928 C187.87616,91.90368 190.84,92.63584 192.6,93.544 L192.6,102.6256 L192.6,102.6256 Z" id="Fill-2" sketch:type="MSShapeGroup"></path>
                <path d="M18.10656,164.37344 L13.6784,163.69584 C12.11552,163.48816 11.0208,162.9672 10.29216,162.2896 C9.51072,161.5592 9.25024,160.62288 9.25024,159.632 C9.25024,157.07824 11.0736,154.94336 14.92976,154.94336 C17.37792,154.94336 20.2432,155.25664 22.53648,157.49712 L27.11952,152.96336 C23.94272,149.8904 20.2432,148.63904 15.13744,148.63904 C7.1136,148.63904 2.21728,153.27664 2.21728,159.89248 C2.21728,163.01824 3.10256,165.46816 4.87488,167.18768 C6.5416,168.8016 8.78208,169.79248 12.06448,170.26064 L16.49088,170.93824 C18.3688,171.19872 19.09744,171.512 19.82608,172.1896 C20.60752,172.96928 20.97184,174.01296 20.97184,175.26256 C20.97184,178.23168 18.68032,179.8984 14.356,179.8984 C10.96976,179.8984 7.7912,179.11696 5.44688,176.77264 L0.75824,181.46128 C4.40496,185.1608 8.67648,186.35936 14.3032,186.35936 C22.11936,186.35936 28.05936,182.29552 28.05936,175.10592 C28.05936,171.77248 27.17232,169.11488 25.19408,167.29152 C23.5784,165.72864 21.4928,164.84336 18.10656,164.37344" id="Fill-3" sketch:type="MSShapeGroup"></path>
                <path d="M39.48,186.56 L64.12,186.56 L64.12,179.52 L46.52,179.52 L46.52,170.72 L60.6,170.72 L60.6,163.68 L46.52,163.68 L46.52,154.88 L64.12,154.88 L64.12,149.6 L39.48,149.6 L39.48,186.56" id="Fill-4" sketch:type="MSShapeGroup"></path>
                <path d="M86.75888,149.6 L73.26496,186.56 L80.81888,186.56 L83.05936,179.52 L96.24,179.52 L98.42944,186.56 L105.98336,186.56 L92.4384,149.6 L86.75888,149.6 L86.75888,149.6 Z M85.09216,174.24 L89.7808,160.74608 L94.3128,174.24 L85.09216,174.24 L85.09216,174.24 Z" id="Fill-5" sketch:type="MSShapeGroup"></path>
                <path d="M142.79904,160.63344 C142.79904,154.43472 138.31808,149.6 130.76416,149.6 L116.92,149.6 L116.92,186.56 L123.96,186.56 L123.96,170.72 L128.68208,170.72 L135.92272,186.56 L144.30912,186.56 L136.02656,170.47008 C139.62048,169.16768 142.79904,165.8448 142.79904,160.63344 L142.79904,160.63344 Z M130.296,165.44 L123.96,165.44 L123.96,154.88 L130.296,154.88 C133.4728,154.88 135.5584,157.29472 135.5584,160.16 C135.5584,163.02528 133.4728,165.44 130.296,165.44 L130.296,165.44 Z" id="Fill-6" sketch:type="MSShapeGroup"></path>
                <path d="M167.5024,155.0549 C171.09632,155.0549 172.97248,156.711462 173.70288,160.262505 L181.10016,160.262505 C179.74496,153.160419 174.43152,148.53696 167.5024,148.53696 C163.22912,148.53696 160.10336,150.008867 157.55136,152.530108 C153.85184,156.262255 153.79904,160.493323 153.79904,167.641573 C153.79904,174.789824 153.85184,179.006688 157.55136,182.738834 C160.10336,185.261851 163.22912,186.486961 167.5024,186.486961 C174.38048,186.486961 179.74496,183.344287 181.10016,174.466679 L173.75392,174.466679 C173.02528,178.017722 171.09632,179.974347 167.5024,179.974347 C165.5224,179.974347 163.90672,179.340486 162.86656,178.131356 C161.51136,176.554692 161.04144,174.763191 161.04144,167.616716 C161.04144,160.468466 161.51136,158.602393 162.86656,157.025729 C163.90672,155.818374 165.5224,155.0549 167.5024,155.0549" id="Fill-7" sketch:type="MSShapeGroup"></path>
                <path d="M211.96,149.6 L211.96,163.68 L199.64,163.68 L199.64,149.6 L192.6,149.6 L192.6,186.56 L199.64,186.56 L199.64,170.72 L211.96,170.72 L211.96,186.56 L219,186.56 L219,149.6 L211.96,149.6" id="Fill-8" sketch:type="MSShapeGroup"></path>
            </g>
        </g>
    </g>
</svg>