<?xml version="1.0" encoding="UTF-8" standalone="no"?>
<svg width="227px" height="78px" viewBox="0 0 227 78" version="1.1" xmlns="http://www.w3.org/2000/svg" xmlns:xlink="http://www.w3.org/1999/xlink" xmlns:sketch="http://www.bohemiancoding.com/sketch/ns">
    <!-- Generator: Sketch 3.2.2 (9983) - http://www.bohemiancoding.com/sketch -->
    <title>pebbleroad-logo</title>
    <desc>Created with Sketch.</desc>
    <defs></defs>
    <g id="Page-1" stroke="none" stroke-width="1" fill="none" fill-rule="evenodd" sketch:type="MSPage">
        <g id="pebbleroad-logo" sketch:type="MSLayerGroup">
            <g id="Page-1" sketch:type="MSShapeGroup">
                <g id="pebbleroad-logo">
                    <g id="Page-1">
                        <g id="PR-Final-Logos">
                            <path d="M136.821,31.523 C136.821,27.495 133.556,24.229 129.527,24.229 C129.1,24.229 128.684,24.273 128.277,24.344 C127.874,24.373 127.028,24.331 126.522,23.572 C126.076,22.902 126.385,22.288 126.568,22.023 C126.578,22.01 126.587,21.997 126.596,21.985 C126.642,21.923 126.678,21.883 126.678,21.883 L126.672,21.883 C127.485,20.76 127.969,19.384 127.969,17.892 C127.969,14.123 124.913,11.067 121.144,11.067 C118.292,11.067 115.852,12.817 114.832,15.3 C114.686,15.57 114.22,16.309 113.449,16.309 C112.514,16.309 112.003,15.142 112.003,15.142 L112,15.149 C111.823,14.746 111.609,14.363 111.36,14.005 C111.201,13.76 110.762,12.964 111.258,12.209 C111.56,11.749 112.113,11.708 112.32,11.709 C112.685,11.781 113.063,11.82 113.449,11.82 C116.644,11.82 119.234,9.231 119.234,6.036 C119.234,2.841 116.644,0.252 113.449,0.252 C110.254,0.252 107.663,2.841 107.663,6.036 C107.663,7.17 107.995,8.224 108.559,9.116 C108.677,9.382 108.854,9.977 108.383,10.515 C107.821,11.157 106.969,11.157 106.684,11.138 C106.379,11.096 106.07,11.067 105.754,11.067 C101.984,11.067 98.929,14.123 98.929,17.892 C98.929,21.662 101.984,24.717 105.754,24.717 C108.503,24.717 110.866,23.088 111.947,20.746 C112.102,20.443 112.605,19.605 113.449,19.605 C114.421,19.605 114.991,20.852 114.991,20.852 L114.995,20.839 C116.096,23.131 118.432,24.717 121.144,24.717 C121.483,24.717 121.814,24.684 122.139,24.636 L122.137,24.641 C122.137,24.641 122.162,24.635 122.201,24.627 C122.253,24.619 122.307,24.612 122.359,24.603 C122.724,24.559 123.455,24.568 123.857,25.246 C124.399,26.16 123.501,27.415 123.501,27.415 L123.502,27.415 C123.194,27.866 122.94,28.355 122.738,28.871 L122.731,28.857 C122.731,28.857 122.46,29.848 121.484,29.848 C120.764,29.848 120.395,29.225 120.272,28.965 C119.235,26.2 116.575,24.229 113.449,24.229 C110.359,24.229 107.724,26.154 106.662,28.866 L106.657,28.857 C106.657,28.857 106.386,29.848 105.411,29.848 C104.646,29.848 104.277,29.145 104.177,28.921 C103.129,26.18 100.481,24.229 97.37,24.229 C93.342,24.229 90.077,27.495 90.077,31.523 C90.077,35.551 93.342,38.817 97.37,38.817 C100.162,38.817 102.586,37.247 103.811,34.943 C103.992,34.676 104.641,33.805 105.411,33.805 C106.277,33.805 106.893,34.755 107.021,34.969 C108.251,37.259 110.668,38.817 113.449,38.817 C116.249,38.817 118.677,37.237 119.899,34.923 C120.095,34.637 120.732,33.805 121.484,33.805 C122.46,33.805 123.122,35.016 123.122,35.016 L123.123,35.015 C124.36,37.28 126.764,38.817 129.527,38.817 C133.556,38.817 136.821,35.551 136.821,31.523" id="Fill-47" fill="#5F6166"></path>
                            <path d="M141.815,66.596 L141.815,66.53 C143.149,66.1 144.26,65.317 145.147,64.181 C146.035,63.046 146.479,61.613 146.479,59.882 C146.479,57.952 145.817,56.423 144.494,55.292 C143.171,54.162 141.44,53.597 139.301,53.597 L131.463,53.597 L131.463,77.378 L134.869,77.378 L134.869,67.257 L138.375,67.257 L144.23,77.378 L148,77.378 L148,77.246 L141.815,66.596 L141.815,66.596 Z M141.468,63.569 C140.641,64.264 139.676,64.611 138.574,64.611 L134.869,64.611 L134.869,56.309 L138.574,56.309 C139.544,56.309 140.476,56.626 141.369,57.26 C142.262,57.894 142.708,58.978 142.708,60.51 C142.708,61.855 142.295,62.875 141.468,63.569 L141.468,63.569 L141.468,63.569 Z" id="Fill-48" fill="#F58220"></path>
                            <path d="M176.837,64.777 C176.837,61.568 175.696,58.831 173.414,56.566 C171.132,54.3 168.238,53.167 164.732,53.167 C161.16,53.167 158.122,54.317 155.62,56.615 C153.117,58.914 151.866,61.987 151.866,65.835 C151.866,69.242 152.932,72.094 155.066,74.393 C157.199,76.692 160.134,77.841 163.872,77.841 C167.554,77.841 170.636,76.678 173.116,74.352 C175.597,72.026 176.837,68.834 176.837,64.777 L176.837,64.777 L176.837,64.777 Z M172.968,65.471 C172.968,68.47 172.209,70.824 170.694,72.533 C169.178,74.242 167.036,75.096 164.269,75.096 C161.799,75.096 159.754,74.206 158.133,72.425 C156.513,70.645 155.702,68.249 155.702,65.24 C155.702,62.34 156.482,60.061 158.042,58.401 C159.602,56.742 161.667,55.912 164.236,55.912 C166.683,55.912 168.751,56.822 170.437,58.641 C172.124,60.46 172.968,62.737 172.968,65.471 L172.968,65.471 L172.968,65.471 Z" id="Fill-49" fill="#F58220"></path>
                            <path d="M201.461,77.378 L190.38,53.266 L189.653,53.266 L178.606,77.378 L182.211,77.378 L184.857,71.392 L194.846,71.392 L197.459,77.378 L201.461,77.378 L201.461,77.378 Z M193.82,68.646 L185.982,68.646 L189.818,59.617 L189.884,59.617 L193.82,68.646 L193.82,68.646 Z" id="Fill-50" fill="#F58220"></path>
                            <path d="M226.835,64.512 C226.835,61.072 225.757,58.393 223.602,56.475 C221.446,54.556 218.334,53.597 214.266,53.597 L206.163,53.597 L206.163,77.378 L213.638,77.378 C217.651,77.378 220.854,76.268 223.246,74.046 C225.638,71.824 226.835,68.646 226.835,64.512 L226.835,64.512 L226.835,64.512 Z M223.031,65.025 C223.031,68.404 222.212,70.839 220.575,72.33 C218.938,73.821 216.769,74.567 214.068,74.567 L209.636,74.567 L209.636,56.309 L213.869,56.309 C216.967,56.309 219.269,57.088 220.774,58.645 C222.279,60.202 223.031,62.329 223.031,65.025 L223.031,65.025 L223.031,65.025 Z" id="Fill-51" fill="#F58220"></path>
                            <path d="M15.708,60.444 C15.708,58.25 14.991,56.56 13.558,55.375 C12.124,54.19 10.151,53.597 7.637,53.597 L0.063,53.597 L0.063,77.378 L3.503,77.378 L3.503,68.084 L6.645,68.084 C9.368,68.084 11.559,67.428 13.219,66.116 C14.878,64.804 15.708,62.914 15.708,60.444 L15.708,60.444 L15.708,60.444 Z M11.97,60.675 C11.97,62.186 11.532,63.346 10.655,64.156 C9.779,64.967 8.475,65.372 6.744,65.372 L3.503,65.372 L3.503,56.309 L7.075,56.309 C8.773,56.309 10.013,56.704 10.796,57.492 C11.579,58.28 11.97,59.341 11.97,60.675 L11.97,60.675 L11.97,60.675 Z" id="Fill-52" fill="#5F6166"></path>
                            <path d="M35.685,77.378 L36.048,74.401 L26.324,74.401 L26.324,66.695 L34.527,66.695 L34.825,63.718 L26.324,63.718 L26.324,56.475 L35.221,56.475 L35.552,53.597 L22.917,53.597 L22.917,77.378 L35.685,77.378" id="Fill-53" fill="#5F6166"></path>
                            <path d="M56.24,62.503 C56.957,61.439 57.315,60.289 57.315,59.055 C57.315,57.456 56.75,56.147 55.62,55.127 C54.49,54.107 53.004,53.597 51.163,53.597 L43.622,53.597 L43.622,77.378 L49.741,77.378 C52.442,77.378 54.562,76.733 56.1,75.443 C57.638,74.153 58.407,72.384 58.407,70.135 C58.407,68.624 57.921,67.368 56.951,66.364 C55.981,65.361 54.779,64.755 53.346,64.545 L53.346,64.413 C54.559,64.203 55.523,63.567 56.24,62.503 L56.24,62.503 L56.24,62.503 Z M47.029,66.133 L50.469,66.133 C51.67,66.133 52.682,66.513 53.503,67.274 C54.324,68.035 54.735,68.999 54.735,70.168 C54.735,71.712 54.333,72.858 53.528,73.608 C52.723,74.358 51.549,74.732 50.006,74.732 L47.029,74.732 L47.029,66.133 L47.029,66.133 Z M53.71,59.485 C53.71,60.753 53.423,61.748 52.85,62.47 C52.277,63.192 51.439,63.553 50.336,63.553 L47.029,63.553 L47.029,56.177 L50.535,56.177 C51.395,56.177 52.139,56.472 52.767,57.062 C53.396,57.652 53.71,58.459 53.71,59.485 L53.71,59.485 L53.71,59.485 Z" id="Fill-54" fill="#5F6166"></path>
                            <path d="M79.095,62.503 C79.811,61.439 80.17,60.289 80.17,59.055 C80.17,57.456 79.605,56.147 78.475,55.127 C77.344,54.107 75.859,53.597 74.018,53.597 L66.477,53.597 L66.477,77.378 L72.596,77.378 C75.297,77.378 77.416,76.733 78.954,75.443 C80.492,74.153 81.261,72.384 81.261,70.135 C81.261,68.624 80.776,67.368 79.806,66.364 C78.836,65.361 77.634,64.755 76.201,64.545 L76.201,64.413 C77.413,64.203 78.378,63.567 79.095,62.503 L79.095,62.503 L79.095,62.503 Z M69.883,66.133 L73.323,66.133 C74.525,66.133 75.536,66.513 76.358,67.274 C77.179,68.035 77.59,68.999 77.59,70.168 C77.59,71.712 77.187,72.858 76.383,73.608 C75.578,74.358 74.404,74.732 72.86,74.732 L69.883,74.732 L69.883,66.133 L69.883,66.133 Z M76.565,59.485 C76.565,60.753 76.278,61.748 75.705,62.47 C75.131,63.192 74.293,63.553 73.191,63.553 L69.883,63.553 L69.883,56.177 L73.389,56.177 C74.249,56.177 74.993,56.472 75.622,57.062 C76.25,57.652 76.565,58.459 76.565,59.485 L76.565,59.485 L76.565,59.485 Z" id="Fill-55" fill="#5F6166"></path>
                            <path d="M101.9,77.378 L102.263,74.401 L92.804,74.401 L92.804,53.597 L89.331,53.597 L89.331,77.378 L101.9,77.378" id="Fill-56" fill="#5F6166"></path>
                            <path d="M121.844,77.378 L122.208,74.401 L112.484,74.401 L112.484,66.695 L120.686,66.695 L120.984,63.718 L112.484,63.718 L112.484,56.475 L121.381,56.475 L121.711,53.597 L109.077,53.597 L109.077,77.378 L121.844,77.378" id="Fill-57" fill="#5F6166"></path>
                        </g>
                    </g>
                </g>
            </g>
        </g>
    </g>
</svg>